# Blender 4.1.1
# www.blender.org
mtllib bust.mtl
o Cube
v 0.564714 4.689955 -0.654863
v 0.985299 3.473458 -0.468403
v 0.549821 4.626428 0.695548
v 0.979339 3.483781 0.444564
v -0.853074 4.905929 -0.744707
v -0.879506 3.872681 -0.603044
v -1.173486 4.988749 1.157531
v -0.809062 3.769934 0.900386
v 0.896066 5.700114 0.826283
v 0.566745 4.556404 0.794643
v -0.325300 6.324564 -0.779331
v -1.276715 4.848615 -0.407784
v -0.521514 6.304911 1.068257
v 0.938854 5.590798 -0.812902
v -1.374744 5.069734 1.102669
v 0.569730 4.551234 -0.753977
v -0.339411 7.018649 -1.036585
v 0.150092 5.442737 -1.764031
v -2.018065 4.700800 -0.995981
v -1.019407 3.682211 -0.805064
v -0.804166 7.017035 0.971069
v 0.062824 5.711903 1.841952
v -2.189565 4.659313 0.958495
v -0.970197 3.698551 0.966508
v 0.579488 4.259890 0.194757
v 0.955945 4.441401 0.107224
v 0.250706 4.982212 0.194757
v 0.612687 5.128627 0.360797
v 0.580431 4.260319 -0.178676
v 0.928220 4.448091 -0.111642
v 0.251649 4.982641 -0.178676
v 0.585930 5.188866 -0.350355
v -0.244181 3.686138 0.646836
v -0.392389 2.471298 0.420021
v -0.244181 3.750258 -0.419582
v -0.440824 2.457107 -0.202762
v -1.527823 4.333062 0.638569
v -1.747048 2.619791 0.666012
v -1.599677 4.412252 -0.640905
v -1.809344 2.566532 -0.490756
v -1.919075 2.971914 -1.460484
v -1.878530 1.773745 -1.758827
v -1.798439 2.922469 1.566193
v -2.070715 1.730563 1.936187
v -0.264426 2.811735 -1.725641
v 0.307322 0.809116 -0.465508
v -0.131241 2.880595 1.586403
v 0.293003 0.860723 0.698230
v 0.168472 1.300446 0.646043
v -0.765105 -0.280455 0.953636
v 0.067411 1.528481 -0.465375
v -1.002890 -0.366961 -0.710722
v -1.689931 1.727641 1.304276
v -2.221416 0.096737 1.103091
v -1.512188 1.846242 -1.055119
v -2.041452 0.011399 -0.696207
v -0.365553 1.502187 0.922325
v -0.258997 1.173012 1.793029
v -1.647466 1.271563 0.575082
v -1.616398 1.002656 1.978407
v -0.359605 2.689089 1.412062
v -0.321555 2.395812 1.816068
v -1.573911 2.687701 1.441567
v -1.439479 2.235521 2.489563
v -1.787129 1.833532 -0.366540
v -1.387953 1.153288 -2.009954
v -0.449044 1.264281 -0.976960
v -0.015304 1.335989 -1.718394
v -1.834378 2.939477 -1.263687
v -1.398934 2.138025 -2.295557
v -0.396508 2.615810 -1.407812
v -0.128965 1.825108 -2.410432
vn 0.1474 0.9879 0.0481
vn 0.2258 -0.1273 0.9658
vn -0.9983 0.0323 0.0490
vn -0.1724 -0.9833 -0.0591
vn 0.9450 0.3271 0.0025
vn 0.0421 -0.1371 -0.9897
vn -0.8170 0.5606 -0.1351
vn 0.9424 -0.3345 0.0029
vn -0.2349 -0.9638 0.1259
vn 0.1387 -0.0683 0.9880
vn -0.2010 -0.1153 -0.9728
vn 0.5006 0.8645 -0.0446
vn -0.4037 0.2771 -0.8719
vn -0.7047 -0.7053 -0.0768
vn -0.4565 0.2637 0.8497
vn 0.7614 0.6237 0.1768
vn -0.7976 0.5744 -0.1842
vn 0.8781 -0.4752 0.0567
vn -0.3564 -0.1622 0.9201
vn -0.3750 0.9270 0.0001
vn 0.1525 0.0694 -0.9859
vn 0.4751 -0.8800 0.0002
vn -0.9101 -0.4143 -0.0028
vn 0.9076 0.4198 0.0014
vn 0.9884 -0.1518 -0.0091
vn 0.1158 -0.0936 -0.9889
vn -0.9911 0.1177 0.0629
vn 0.0015 0.0158 0.9999
vn 0.4491 0.8919 0.0536
vn -0.0902 -0.9946 0.0507
vn -0.9983 -0.0435 0.0391
vn -0.0041 0.2973 0.9548
vn 0.9676 0.2485 -0.0441
vn -0.1315 0.2353 -0.9630
vn 0.0249 0.9996 0.0153
vn -0.4208 -0.9065 0.0350
vn 0.8669 -0.4669 -0.1746
vn 0.3368 -0.0686 -0.9391
vn -0.9622 0.2660 -0.0591
vn 0.3314 -0.0121 0.9434
vn 0.2772 0.9458 0.1689
vn -0.2487 -0.9684 0.0211
vn 0.2231 -0.9565 -0.1882
vn -0.9990 0.0343 0.0287
vn 0.0133 0.8098 0.5866
vn 0.9968 0.0260 -0.0750
vn 0.1377 0.5117 -0.8480
vn 0.5149 0.0102 0.8572
vn -0.2436 -0.9156 0.3198
vn 0.8504 0.1295 0.5100
vn 0.1243 0.8084 -0.5754
vn -0.9480 -0.2239 -0.2261
vn 0.4874 0.2480 0.8372
vn -0.1540 -0.2768 -0.9485
vn 0.2036 0.9790 -0.0083
vn 0.2301 -0.1345 0.9638
vn -0.9555 -0.2541 -0.1499
vn -0.2100 -0.9777 0.0097
vn 0.9376 0.3466 0.0266
vn 0.0419 -0.1368 -0.9897
vn -0.8470 0.5248 -0.0844
vn 0.9597 -0.2775 0.0436
vn -0.1585 -0.9874 0.0030
vn 0.1398 -0.0676 0.9879
vn -0.0492 -0.0391 -0.9980
vn 0.3994 0.9153 0.0522
vn -0.1977 -0.3644 -0.9100
vn -0.6188 -0.7852 0.0244
vn -0.2312 -0.2857 0.9300
vn 0.9551 0.2962 0.0010
vn -0.8602 0.5058 -0.0647
vn 0.8283 -0.5600 -0.0178
vn 0.3083 -0.1899 0.9321
vn -0.4882 0.8679 0.0919
vn -0.2191 -0.3895 -0.8946
vn 0.4176 -0.9050 -0.0806
vn 0.8758 0.4730 -0.0965
vn 0.9914 -0.1070 -0.0747
vn 0.1876 -0.1901 -0.9637
vn -0.9907 0.1275 0.0475
vn 0.1539 -0.1995 0.9678
vn 0.4345 0.9001 0.0313
vn -0.1034 -0.9942 0.0307
vn -0.9769 0.2081 -0.0484
vn 0.3465 -0.3157 0.8834
vn 0.9789 0.2043 0.0030
vn 0.3029 -0.4441 -0.8432
vn 0.0924 0.9954 -0.0244
vn -0.3588 -0.9329 -0.0296
vn 0.8491 -0.5198 -0.0943
vn -0.0758 -0.1703 -0.9825
vn -0.9410 0.3202 -0.1093
vn 0.0644 -0.1428 0.9877
vn 0.1743 0.9827 0.0625
vn -0.3395 -0.9356 0.0971
vn 0.0676 -0.9305 -0.3600
vn -0.9844 0.0754 0.1588
vn 0.0993 0.9182 0.3834
vn 0.9934 0.0527 -0.1016
vn -0.0229 0.3814 -0.9241
vn 0.1730 -0.3983 0.9008
vn 0.1354 -0.9907 -0.0166
vn 0.9602 0.2768 0.0379
vn 0.1427 0.7953 -0.5892
vn -0.9756 -0.0711 -0.2076
vn 0.2153 0.6207 0.7539
vn 0.2280 -0.7771 -0.5867
vt 0.875000 0.500000
vt 0.625000 0.750000
vt 0.625000 0.500000
vt 0.375000 1.000000
vt 0.375000 0.750000
vt 0.375000 0.000000
vt 0.625000 0.250000
vt 0.375000 0.250000
vt 0.125000 0.500000
vt 0.125000 0.750000
vt 0.375000 0.500000
vt 0.625000 0.000000
vt 0.625000 1.000000
vt 0.875000 0.750000
s 0
usemtl Material
f 5/1/1 3/2/1 1/3/1
f 3/2/2 8/4/2 4/5/2
f 8/6/3 5/7/3 6/8/3
f 6/9/4 4/5/4 8/10/4
f 1/3/5 4/5/5 2/11/5
f 6/8/6 1/3/6 2/11/6
f 13/12/7 12/8/7 15/6/7
f 14/7/8 10/11/8 16/8/8
f 12/11/9 10/2/9 15/5/9
f 10/5/10 13/13/10 15/4/10
f 11/11/11 16/10/11 12/9/11
f 11/1/12 9/2/12 14/3/12
f 18/12/13 19/8/13 17/6/13
f 20/7/14 23/11/14 19/8/14
f 23/11/15 22/2/15 21/5/15
f 22/2/16 17/4/16 21/5/16
f 19/9/17 21/5/17 17/10/17
f 24/3/18 18/14/18 22/2/18
f 25/6/19 28/7/19 27/8/19
f 28/7/20 31/11/20 27/8/20
f 31/11/21 30/2/21 29/5/21
f 30/2/22 25/4/22 29/5/22
f 31/11/23 25/10/23 27/9/23
f 28/1/24 30/2/24 32/3/24
f 33/6/25 36/7/25 35/8/25
f 35/8/26 40/3/26 39/11/26
f 40/3/27 37/5/27 39/11/27
f 38/2/28 33/4/28 37/5/28
f 35/9/29 37/5/29 33/10/29
f 36/1/30 38/2/30 40/3/30
f 42/12/31 43/8/31 41/6/31
f 44/7/32 47/11/32 43/8/32
f 47/11/33 46/2/33 45/5/33
f 45/5/34 42/13/34 41/4/34
f 47/11/35 41/10/35 43/9/35
f 48/3/36 42/14/36 46/2/36
f 49/6/37 52/7/37 51/8/37
f 52/7/38 55/11/38 51/8/38
f 56/3/39 53/5/39 55/11/39
f 53/5/40 50/13/40 49/4/40
f 51/9/41 53/5/41 49/10/41
f 56/3/42 50/14/42 54/2/42
f 57/6/43 60/7/43 59/8/43
f 60/7/44 63/11/44 59/8/44
f 63/11/45 62/2/45 61/5/45
f 62/2/46 57/4/46 61/5/46
f 63/11/47 57/10/47 59/9/47
f 64/3/48 58/14/48 62/2/48
f 66/12/49 67/8/49 65/6/49
f 68/7/50 71/11/50 67/8/50
f 71/11/51 70/2/51 69/5/51
f 70/2/52 65/4/52 69/5/52
f 71/11/53 65/10/53 67/9/53
f 72/3/54 66/14/54 70/2/54
f 5/1/55 7/14/55 3/2/55
f 3/2/56 7/13/56 8/4/56
f 8/6/57 7/12/57 5/7/57
f 6/9/58 2/11/58 4/5/58
f 1/3/59 3/2/59 4/5/59
f 6/8/60 5/7/60 1/3/60
f 13/12/61 11/7/61 12/8/61
f 14/7/62 9/3/62 10/11/62
f 12/11/63 16/3/63 10/2/63
f 10/5/64 9/2/64 13/13/64
f 11/11/65 14/5/65 16/10/65
f 11/1/66 13/14/66 9/2/66
f 18/12/67 20/7/67 19/8/67
f 20/7/68 24/3/68 23/11/68
f 23/11/69 24/3/69 22/2/69
f 22/2/70 18/13/70 17/4/70
f 19/9/71 23/11/71 21/5/71
f 24/3/72 20/1/72 18/14/72
f 25/6/73 26/12/73 28/7/73
f 28/7/74 32/3/74 31/11/74
f 31/11/75 32/3/75 30/2/75
f 30/2/76 26/13/76 25/4/76
f 31/11/23 29/5/23 25/10/23
f 28/1/77 26/14/77 30/2/77
f 33/6/78 34/12/78 36/7/78
f 35/8/79 36/7/79 40/3/79
f 40/3/80 38/2/80 37/5/80
f 38/2/81 34/13/81 33/4/81
f 35/9/82 39/11/82 37/5/82
f 36/1/83 34/14/83 38/2/83
f 42/12/84 44/7/84 43/8/84
f 44/7/85 48/3/85 47/11/85
f 47/11/86 48/3/86 46/2/86
f 45/5/87 46/2/87 42/13/87
f 47/11/88 45/5/88 41/10/88
f 48/3/89 44/1/89 42/14/89
f 49/6/90 50/12/90 52/7/90
f 52/7/91 56/3/91 55/11/91
f 56/3/92 54/2/92 53/5/92
f 53/5/93 54/2/93 50/13/93
f 51/9/94 55/11/94 53/5/94
f 56/3/95 52/1/95 50/14/95
f 57/6/96 58/12/96 60/7/96
f 60/7/97 64/3/97 63/11/97
f 63/11/98 64/3/98 62/2/98
f 62/2/99 58/13/99 57/4/99
f 63/11/100 61/5/100 57/10/100
f 64/3/101 60/1/101 58/14/101
f 66/12/102 68/7/102 67/8/102
f 68/7/103 72/3/103 71/11/103
f 71/11/104 72/3/104 70/2/104
f 70/2/105 66/13/105 65/4/105
f 71/11/106 69/5/106 65/10/106
f 72/3/107 68/1/107 66/14/107
