# Blender 4.1.1
# www.blender.org
mtllib something.mtl
o Cube
v 1.000000 1.000000 -1.000000
v 0.765108 -1.355802 -0.359008
v 0.956491 0.333530 1.262382
v 0.300355 -0.747316 0.922014
v -1.030868 0.414224 -1.143952
v -0.451976 -1.304669 -0.869514
v -0.749830 1.645852 0.842451
v -1.240518 -1.052942 0.585585
v -0.565331 1.000000 0.556048
v -0.234546 2.845718 0.361093
v -0.420205 0.481696 -0.500268
v -0.413219 2.910323 -0.358404
v 0.577095 0.479523 0.749312
v 0.598107 2.540304 0.556048
v 0.598107 1.000000 -0.525115
v 0.156987 3.382002 -0.208677
v -0.454256 -0.560957 -0.540577
v -1.928968 -0.452873 -0.583135
v -0.997223 0.682782 -0.276139
v -1.815548 0.430777 -0.640800
v -0.966939 -0.072544 0.586976
v -2.063965 -0.267306 0.682720
v -0.600523 0.557229 0.456866
v -2.010235 1.127401 -0.111228
vn 0.2093 0.9677 -0.1404
vn -0.2488 -0.0771 0.9655
vn -0.9903 -0.0203 -0.1373
vn -0.0036 -0.9544 0.2984
vn 0.9620 -0.2377 0.1341
vn 0.2245 -0.1955 -0.9546
vn -0.9969 0.0788 -0.0013
vn 0.0181 0.0964 -0.9952
vn 0.9856 0.0970 -0.1382
vn -0.1468 0.1109 0.9829
vn -0.0009 -1.0000 -0.0010
vn -0.2343 0.7831 0.5760
vn 0.1656 0.1285 -0.9778
vn 0.3024 0.8494 -0.4326
vn -0.1044 0.4308 0.8964
vn 0.0381 -0.9591 0.2804
vn 0.9949 0.0906 0.0444
vn -0.9832 0.0039 -0.1825
vt 0.625000 0.500000
vt 0.875000 0.500000
vt 0.875000 0.750000
vt 0.625000 0.750000
vt 0.375000 0.750000
vt 0.625000 1.000000
vt 0.375000 1.000000
vt 0.375000 0.000000
vt 0.625000 0.000000
vt 0.625000 0.250000
vt 0.375000 0.250000
vt 0.125000 0.500000
vt 0.375000 0.500000
vt 0.125000 0.750000
s 0
usemtl Material
f 1/1/1 5/2/1 7/3/1 3/4/1
f 4/5/2 3/4/2 7/6/2 8/7/2
f 8/8/3 7/9/3 5/10/3 6/11/3
f 6/12/4 2/13/4 4/5/4 8/14/4
f 2/13/5 1/1/5 3/4/5 4/5/5
f 6/11/6 5/10/6 1/1/6 2/13/6
f 9/8/7 10/9/7 12/10/7 11/11/7
f 11/11/8 12/10/8 16/1/8 15/13/8
f 15/13/9 16/1/9 14/4/9 13/5/9
f 13/5/10 14/4/10 10/6/10 9/7/10
f 11/12/11 15/13/11 13/5/11 9/14/11
f 16/1/12 12/2/12 10/3/12 14/4/12
f 17/8/13 18/9/13 20/10/13 19/11/13
f 19/11/14 20/10/14 24/1/14 23/13/14
f 23/13/15 24/1/15 22/4/15 21/5/15
f 21/5/16 22/4/16 18/6/16 17/7/16
f 19/12/17 23/13/17 21/5/17 17/14/17
f 24/1/18 20/2/18 18/3/18 22/4/18
